<?xml version="1.0" encoding="UTF-8"?>
<svg xmlns="http://www.w3.org/2000/svg" xmlns:xlink="http://www.w3.org/1999/xlink" width="68px" height="25px" viewBox="0 0 67 25" version="1.1">
<defs>
<clipPath id="clip1">
  <path d="M 43.214844 1.351562 L 57.953125 1.351562 L 57.953125 15.539062 L 43.214844 15.539062 Z M 43.214844 1.351562 "/>
</clipPath>
<clipPath id="clip2">
  <path d="M 56.785156 3.648438 C 54.722656 0.867188 50.355469 0.679688 47.027344 3.226562 C 43.695312 5.777344 42.671875 10.101562 44.734375 12.882812 C 46.796875 15.664062 51.167969 15.851562 54.492188 13.300781 C 57.820312 10.753906 58.847656 6.429688 56.785156 3.648438 Z M 56.785156 3.648438 "/>
</clipPath>
<clipPath id="clip3">
  <path d="M 36.246094 6.886719 L 53.441406 -6.292969 L 65.34375 9.765625 L 48.144531 22.941406 Z M 36.246094 6.886719 "/>
</clipPath>
<clipPath id="clip4">
  <path d="M 56.785156 3.648438 C 54.722656 0.867188 50.355469 0.679688 47.027344 3.226562 C 43.695312 5.777344 42.671875 10.101562 44.734375 12.882812 C 46.796875 15.664062 51.167969 15.851562 54.492188 13.300781 C 57.820312 10.753906 58.847656 6.429688 56.785156 3.648438 Z M 56.785156 3.648438 "/>
</clipPath>
<clipPath id="clip5">
  <path d="M 41.035156 7.957031 L 53.078125 -1.269531 L 60.550781 8.816406 L 48.507812 18.042969 Z M 41.035156 7.957031 "/>
</clipPath>
<clipPath id="clip6">
  <path d="M 43.214844 1.351562 L 57.953125 1.351562 L 57.953125 15.539062 L 43.214844 15.539062 Z M 43.214844 1.351562 "/>
</clipPath>
<clipPath id="clip7">
  <path d="M 56.785156 3.648438 C 54.722656 0.867188 50.355469 0.679688 47.027344 3.226562 C 43.695312 5.777344 42.671875 10.101562 44.734375 12.882812 C 46.796875 15.664062 51.167969 15.851562 54.492188 13.300781 C 57.820312 10.753906 58.847656 6.429688 56.785156 3.648438 Z M 56.785156 3.648438 "/>
</clipPath>
<clipPath id="clip8">
  <path d="M 36.246094 6.886719 L 53.441406 -6.292969 L 65.34375 9.765625 L 48.144531 22.941406 Z M 36.246094 6.886719 "/>
</clipPath>
<clipPath id="clip9">
  <path d="M 56.785156 3.648438 C 54.722656 0.867188 50.355469 0.679688 47.027344 3.226562 C 43.695312 5.777344 42.671875 10.101562 44.734375 12.882812 C 46.796875 15.664062 51.167969 15.851562 54.492188 13.300781 C 57.820312 10.753906 58.847656 6.429688 56.785156 3.648438 Z M 56.785156 3.648438 "/>
</clipPath>
<clipPath id="clip10">
  <path d="M 42.75 14.015625 L 46.90625 -0.722656 L 58.847656 2.757812 L 54.6875 17.492188 Z M 42.75 14.015625 "/>
</clipPath>
<clipPath id="clip11">
  <path d="M 43.214844 1.351562 L 57.953125 1.351562 L 57.953125 15.539062 L 43.214844 15.539062 Z M 43.214844 1.351562 "/>
</clipPath>
<clipPath id="clip12">
  <path d="M 56.785156 3.648438 C 54.722656 0.867188 50.355469 0.679688 47.027344 3.226562 C 43.695312 5.777344 42.671875 10.101562 44.734375 12.882812 C 46.796875 15.664062 51.167969 15.851562 54.492188 13.300781 C 57.820312 10.753906 58.847656 6.429688 56.785156 3.648438 Z M 56.785156 3.648438 "/>
</clipPath>
<clipPath id="clip13">
  <path d="M 36.246094 6.886719 L 53.441406 -6.292969 L 65.34375 9.765625 L 48.144531 22.941406 Z M 36.246094 6.886719 "/>
</clipPath>
<clipPath id="clip14">
  <path d="M 56.785156 3.648438 C 54.722656 0.867188 50.355469 0.679688 47.027344 3.226562 C 43.695312 5.777344 42.671875 10.101562 44.734375 12.882812 C 46.796875 15.664062 51.167969 15.851562 54.492188 13.300781 C 57.820312 10.753906 58.847656 6.429688 56.785156 3.648438 Z M 56.785156 3.648438 "/>
</clipPath>
<clipPath id="clip15">
  <path d="M 41.035156 7.957031 L 53.078125 -1.269531 L 60.550781 8.816406 L 48.507812 18.042969 Z M 41.035156 7.957031 "/>
</clipPath>
<clipPath id="clip16">
  <path d="M 43.214844 1.351562 L 57.953125 1.351562 L 57.953125 15.539062 L 43.214844 15.539062 Z M 43.214844 1.351562 "/>
</clipPath>
<clipPath id="clip17">
  <path d="M 56.785156 3.648438 C 54.722656 0.867188 50.355469 0.679688 47.027344 3.226562 C 43.695312 5.777344 42.671875 10.101562 44.734375 12.882812 C 46.796875 15.664062 51.167969 15.851562 54.492188 13.300781 C 57.820312 10.753906 58.847656 6.429688 56.785156 3.648438 Z M 56.785156 3.648438 "/>
</clipPath>
<clipPath id="clip18">
  <path d="M 36.246094 6.886719 L 53.441406 -6.292969 L 65.34375 9.765625 L 48.144531 22.941406 Z M 36.246094 6.886719 "/>
</clipPath>
<clipPath id="clip19">
  <path d="M 56.785156 3.648438 C 54.722656 0.867188 50.355469 0.679688 47.027344 3.226562 C 43.695312 5.777344 42.671875 10.101562 44.734375 12.882812 C 46.796875 15.664062 51.167969 15.851562 54.492188 13.300781 C 57.820312 10.753906 58.847656 6.429688 56.785156 3.648438 Z M 56.785156 3.648438 "/>
</clipPath>
<clipPath id="clip20">
  <path d="M 42.75 14.015625 L 46.90625 -0.722656 L 58.847656 2.757812 L 54.6875 17.492188 Z M 42.75 14.015625 "/>
</clipPath>
<clipPath id="clip21">
  <path d="M 43.214844 1.351562 L 57.953125 1.351562 L 57.953125 15.539062 L 43.214844 15.539062 Z M 43.214844 1.351562 "/>
</clipPath>
<clipPath id="clip22">
  <path d="M 56.785156 3.648438 C 54.722656 0.867188 50.355469 0.679688 47.027344 3.226562 C 43.695312 5.777344 42.671875 10.101562 44.734375 12.882812 C 46.796875 15.664062 51.167969 15.851562 54.492188 13.300781 C 57.820312 10.753906 58.847656 6.429688 56.785156 3.648438 Z M 56.785156 3.648438 "/>
</clipPath>
<clipPath id="clip23">
  <path d="M 36.246094 6.886719 L 53.441406 -6.292969 L 65.34375 9.765625 L 48.144531 22.941406 Z M 36.246094 6.886719 "/>
</clipPath>
<clipPath id="clip24">
  <path d="M 56.785156 3.648438 C 54.722656 0.867188 50.355469 0.679688 47.027344 3.226562 C 43.695312 5.777344 42.671875 10.101562 44.734375 12.882812 C 46.796875 15.664062 51.167969 15.851562 54.492188 13.300781 C 57.820312 10.753906 58.847656 6.429688 56.785156 3.648438 Z M 56.785156 3.648438 "/>
</clipPath>
<clipPath id="clip25">
  <path d="M 43.214844 1.351562 L 57.953125 1.351562 L 57.953125 15.539062 L 43.214844 15.539062 Z M 43.214844 1.351562 "/>
</clipPath>
<clipPath id="clip26">
  <path d="M 56.785156 3.648438 C 54.722656 0.867188 50.355469 0.679688 47.027344 3.226562 C 43.695312 5.777344 42.671875 10.101562 44.734375 12.882812 C 46.796875 15.664062 51.167969 15.851562 54.492188 13.300781 C 57.820312 10.753906 58.847656 6.429688 56.785156 3.648438 Z M 56.785156 3.648438 "/>
</clipPath>
<clipPath id="clip27">
  <path d="M 36.246094 6.886719 L 53.441406 -6.292969 L 65.34375 9.765625 L 48.144531 22.941406 Z M 36.246094 6.886719 "/>
</clipPath>
<clipPath id="clip28">
  <path d="M 47.234375 4.054688 L 55 4.054688 L 55 12.835938 L 47.234375 12.835938 Z M 47.234375 4.054688 "/>
</clipPath>
<clipPath id="clip29">
  <path d="M 56.785156 3.648438 C 54.722656 0.867188 50.355469 0.679688 47.027344 3.226562 C 43.695312 5.777344 42.671875 10.101562 44.734375 12.882812 C 46.796875 15.664062 51.167969 15.851562 54.492188 13.300781 C 57.820312 10.753906 58.847656 6.429688 56.785156 3.648438 Z M 56.785156 3.648438 "/>
</clipPath>
<clipPath id="clip30">
  <path d="M 36.246094 6.886719 L 53.441406 -6.292969 L 65.34375 9.765625 L 48.144531 22.941406 Z M 36.246094 6.886719 "/>
</clipPath>
</defs>
<g id="surface1">
<path style=" stroke:none;fill-rule:nonzero;fill:rgb(0%,0%,0%);fill-opacity:1;" d="M 34.578125 8.28125 L 37.726562 8.074219 C 37.800781 8.597656 37.929688 8.988281 38.148438 9.265625 C 38.492188 9.703125 38.972656 9.925781 39.609375 9.925781 C 40.074219 9.925781 40.445312 9.816406 40.699219 9.582031 C 40.9375 9.402344 41.082031 9.109375 41.082031 8.804688 C 41.082031 8.511719 40.949219 8.230469 40.722656 8.050781 C 40.484375 7.832031 39.921875 7.613281 39.03125 7.417969 C 37.585938 7.085938 36.542969 6.648438 35.929688 6.089844 C 35.320312 5.5625 34.972656 4.796875 34.996094 3.984375 C 34.996094 3.421875 35.164062 2.859375 35.476562 2.398438 C 35.835938 1.875 36.328125 1.460938 36.914062 1.230469 C 37.546875 0.949219 38.433594 0.804688 39.546875 0.804688 C 40.914062 0.804688 41.957031 1.058594 42.671875 1.582031 C 43.394531 2.09375 43.824219 2.921875 43.957031 4.054688 L 40.839844 4.238281 C 40.757812 3.75 40.589844 3.398438 40.316406 3.167969 C 40.039062 2.933594 39.679688 2.824219 39.214844 2.824219 C 38.828125 2.824219 38.542969 2.910156 38.351562 3.070312 C 38.171875 3.214844 38.050781 3.433594 38.0625 3.675781 C 38.0625 3.863281 38.160156 4.03125 38.300781 4.140625 C 38.460938 4.285156 38.828125 4.421875 39.417969 4.542969 C 40.863281 4.859375 41.894531 5.175781 42.53125 5.503906 C 43.164062 5.832031 43.621094 6.234375 43.894531 6.710938 C 44.183594 7.199219 44.328125 7.757812 44.3125 8.328125 C 44.3125 9.011719 44.125 9.695312 43.742188 10.265625 C 43.347656 10.859375 42.792969 11.324219 42.148438 11.605469 C 41.464844 11.910156 40.601562 12.066406 39.570312 12.066406 C 37.753906 12.066406 36.492188 11.714844 35.789062 10.996094 C 35.082031 10.277344 34.660156 9.378906 34.578125 8.28125 Z M 1.148438 11.886719 L 1.148438 0.996094 L 6.671875 0.996094 C 7.6875 0.996094 8.480469 1.085938 9.019531 1.265625 C 9.542969 1.4375 10.011719 1.789062 10.324219 2.265625 C 10.671875 2.789062 10.839844 3.398438 10.828125 4.03125 C 10.863281 5.101562 10.324219 6.125 9.402344 6.660156 C 9.042969 6.867188 8.648438 7.015625 8.242188 7.085938 C 8.539062 7.171875 8.839844 7.320312 9.101562 7.488281 C 9.308594 7.660156 9.472656 7.855469 9.628906 8.0625 C 9.808594 8.269531 9.964844 8.5 10.097656 8.746094 L 11.703125 11.898438 L 7.941406 11.898438 L 6.167969 8.550781 C 5.941406 8.121094 5.75 7.839844 5.570312 7.707031 C 5.332031 7.539062 5.042969 7.453125 4.753906 7.453125 L 4.46875 7.453125 L 4.46875 11.871094 L 1.148438 11.871094 Z M 4.46875 5.40625 L 5.867188 5.40625 C 6.167969 5.382812 6.457031 5.335938 6.746094 5.261719 C 6.960938 5.222656 7.148438 5.101562 7.28125 4.917969 C 7.605469 4.480469 7.558594 3.863281 7.164062 3.484375 C 6.945312 3.300781 6.527344 3.203125 5.929688 3.203125 L 4.46875 3.203125 Z M 0.394531 21.210938 L 3.546875 21.007812 C 3.617188 21.527344 3.746094 21.917969 3.964844 22.199219 C 4.300781 22.636719 4.792969 22.871094 5.425781 22.871094 C 5.894531 22.871094 6.261719 22.757812 6.515625 22.527344 C 6.753906 22.335938 6.898438 22.050781 6.898438 21.75 C 6.898438 21.457031 6.769531 21.175781 6.539062 20.992188 C 6.300781 20.773438 5.738281 20.554688 4.839844 20.359375 C 3.390625 20.03125 2.347656 19.59375 1.738281 19.03125 C 1.125 18.511719 0.78125 17.742188 0.804688 16.925781 C 0.804688 16.367188 0.972656 15.808594 1.28125 15.34375 C 1.640625 14.820312 2.132812 14.40625 2.71875 14.171875 C 3.351562 13.894531 4.238281 13.75 5.355469 13.75 C 6.71875 13.75 7.761719 14.003906 8.480469 14.527344 C 9.199219 15.050781 9.617188 15.867188 9.75 17 L 6.632812 17.183594 C 6.550781 16.695312 6.382812 16.34375 6.109375 16.109375 C 5.84375 15.878906 5.472656 15.769531 5.007812 15.78125 C 4.625 15.78125 4.335938 15.867188 4.144531 16.035156 C 3.953125 16.183594 3.84375 16.402344 3.859375 16.644531 C 3.859375 16.828125 3.953125 17 4.097656 17.109375 C 4.253906 17.257812 4.625 17.386719 5.210938 17.511719 C 6.660156 17.828125 7.6875 18.144531 8.324219 18.472656 C 8.957031 18.804688 9.414062 19.203125 9.6875 19.679688 C 9.976562 20.164062 10.121094 20.726562 10.121094 21.285156 C 10.121094 21.96875 9.917969 22.636719 9.542969 23.210938 C 9.148438 23.808594 8.601562 24.269531 7.953125 24.546875 C 7.269531 24.855469 6.40625 25.011719 5.378906 25.011719 C 3.558594 25.011719 2.300781 24.660156 1.59375 23.941406 C 0.886719 23.210938 0.492188 22.308594 0.394531 21.210938 Z M 0.394531 21.210938 "/>
<path style=" stroke:none;fill-rule:nonzero;fill:rgb(0%,0%,0%);fill-opacity:1;" d="M 16.324219 20.359375 L 19.222656 21.25 C 19.070312 21.992188 18.746094 22.699219 18.300781 23.320312 C 17.894531 23.867188 17.355469 24.292969 16.746094 24.574219 C 16.121094 24.855469 15.332031 25 14.375 25 C 13.210938 25 12.253906 24.828125 11.519531 24.488281 C 10.78125 24.148438 10.144531 23.539062 9.605469 22.675781 C 9.066406 21.808594 8.804688 20.699219 8.804688 19.347656 C 8.804688 17.546875 9.269531 16.15625 10.21875 15.199219 C 11.164062 14.234375 12.492188 13.75 14.214844 13.75 C 15.570312 13.75 16.625 14.027344 17.402344 14.578125 C 18.167969 15.136719 18.746094 15.988281 19.125 17.132812 L 16.207031 17.792969 C 16.132812 17.535156 16.023438 17.28125 15.882812 17.0625 C 15.703125 16.804688 15.476562 16.609375 15.199219 16.464844 C 14.921875 16.316406 14.613281 16.253906 14.300781 16.253906 C 13.546875 16.253906 12.972656 16.5625 12.574219 17.183594 C 12.277344 17.632812 12.121094 18.351562 12.121094 19.324219 C 12.121094 20.53125 12.300781 21.359375 12.660156 21.808594 C 13.019531 22.261719 13.523438 22.480469 14.179688 22.480469 C 14.816406 22.480469 15.292969 22.296875 15.621094 21.945312 C 15.941406 21.566406 16.183594 21.042969 16.324219 20.359375 Z M 23.089844 13.929688 L 26.398438 13.929688 L 26.398438 17.742188 L 30.015625 17.742188 L 30.015625 13.929688 L 33.34375 13.929688 L 33.34375 24.816406 L 30.015625 24.816406 L 30.015625 20.410156 L 26.398438 20.410156 L 26.398438 24.816406 L 23.089844 24.816406 Z M 23.089844 13.929688 "/>
<path style=" stroke:none;fill-rule:nonzero;fill:rgb(0%,0%,0%);fill-opacity:1;" d="M 32.890625 19.371094 C 32.890625 17.597656 33.378906 16.207031 34.351562 15.222656 C 35.320312 14.234375 36.683594 13.734375 38.421875 13.734375 C 40.207031 13.734375 41.570312 14.222656 42.542969 15.199219 C 43.511719 16.171875 43.992188 17.535156 43.992188 19.289062 C 43.992188 20.570312 43.773438 21.601562 43.355469 22.417969 C 42.949219 23.222656 42.316406 23.882812 41.539062 24.320312 C 40.734375 24.769531 39.738281 25 38.554688 25 C 37.34375 25 36.351562 24.804688 35.558594 24.417969 C 34.746094 24.003906 34.074219 23.355469 33.628906 22.5625 C 33.140625 21.710938 32.890625 20.652344 32.890625 19.371094 Z M 36.195312 19.386719 C 36.195312 20.480469 36.398438 21.273438 36.792969 21.761719 C 37.191406 22.238281 37.738281 22.480469 38.433594 22.480469 C 39.140625 22.480469 39.691406 22.246094 40.085938 21.773438 C 40.484375 21.296875 40.671875 20.457031 40.671875 19.242188 C 40.671875 18.21875 40.46875 17.460938 40.0625 17 C 39.65625 16.523438 39.105469 16.292969 38.410156 16.292969 C 37.800781 16.269531 37.214844 16.535156 36.804688 17.011719 C 36.398438 17.484375 36.195312 18.277344 36.195312 19.386719 Z M 47.382812 19.371094 C 47.382812 17.597656 47.875 16.207031 48.84375 15.222656 C 49.8125 14.234375 51.179688 13.734375 52.914062 13.734375 C 54.699219 13.734375 56.074219 14.222656 57.035156 15.199219 C 57.996094 16.171875 58.484375 17.535156 58.484375 19.289062 C 58.484375 20.570312 58.269531 21.601562 57.851562 22.417969 C 57.441406 23.222656 56.804688 23.882812 56.027344 24.320312 C 55.226562 24.769531 54.234375 25 53.046875 25 C 51.835938 25 50.839844 24.804688 50.050781 24.417969 C 49.238281 24.003906 48.566406 23.355469 48.125 22.5625 C 47.632812 21.710938 47.382812 20.652344 47.382812 19.371094 Z M 50.6875 19.386719 C 50.6875 20.480469 50.890625 21.273438 51.285156 21.761719 C 51.679688 22.238281 52.230469 22.480469 52.925781 22.480469 C 53.632812 22.480469 54.183594 22.246094 54.578125 21.773438 C 54.972656 21.296875 55.167969 20.457031 55.167969 19.242188 C 55.167969 18.21875 54.964844 17.460938 54.554688 17 C 54.148438 16.523438 53.597656 16.292969 52.902344 16.292969 C 52.292969 16.269531 51.691406 16.535156 51.296875 17.011719 C 50.890625 17.484375 50.6875 18.277344 50.6875 19.386719 Z M 50.6875 19.386719 "/>
<path style=" stroke:none;fill-rule:nonzero;fill:rgb(0%,0%,0%);fill-opacity:1;" d="M 58.136719 13.929688 L 61.445312 13.929688 L 61.445312 22.140625 L 66.605469 22.140625 L 66.605469 24.816406 L 58.125 24.816406 L 58.125 13.929688 Z M 58.136719 13.929688 "/>
<path style=" stroke:none;fill-rule:nonzero;fill:rgb(100%,100%,100%);fill-opacity:1;" d="M 56.785156 3.648438 C 54.722656 0.867188 50.355469 0.679688 47.027344 3.226562 C 43.695312 5.777344 42.671875 10.101562 44.734375 12.882812 C 46.796875 15.664062 51.167969 15.851562 54.492188 13.300781 C 57.820312 10.753906 58.847656 6.429688 56.785156 3.648438 Z M 56.785156 3.648438 "/>
<g clip-path="url(#clip1)" clip-rule="nonzero">
<g clip-path="url(#clip2)" clip-rule="nonzero">
<path style=" stroke:none;fill-rule:nonzero;fill:rgb(100%,100%,100%);fill-opacity:1;" d="M 36.246094 6.886719 L 53.441406 -6.292969 L 65.34375 9.765625 L 48.144531 22.941406 Z M 36.246094 6.886719 "/>
<g clip-path="url(#clip3)" clip-rule="nonzero">
<path style=" stroke:none;fill-rule:nonzero;fill:rgb(100%,100%,100%);fill-opacity:1;" d="M 56.785156 3.648438 C 54.722656 0.867188 50.355469 0.679688 47.027344 3.226562 C 43.695312 5.777344 42.671875 10.101562 44.734375 12.882812 C 46.796875 15.664062 51.167969 15.851562 54.492188 13.300781 C 57.820312 10.753906 58.847656 6.429688 56.785156 3.648438 Z M 56.785156 3.648438 "/>
<g clip-path="url(#clip4)" clip-rule="nonzero">
<path style=" stroke:none;fill-rule:nonzero;fill:rgb(100%,100%,100%);fill-opacity:1;" d="M 41.035156 7.957031 L 53.078125 -1.269531 L 60.550781 8.816406 L 48.507812 18.042969 Z M 41.035156 7.957031 "/>
<g clip-path="url(#clip5)" clip-rule="nonzero">
<path style="fill-rule:nonzero;fill:rgb(100%,100%,100%);fill-opacity:1;stroke-width:4;stroke-linecap:butt;stroke-linejoin:miter;stroke:rgb(0%,0%,0%);stroke-opacity:1;stroke-miterlimit:10;" d="M 483.494831 67.901486 C 483.487737 39.297368 455.294216 16.123193 420.515224 16.10309 C 385.690881 16.088976 357.495404 39.306001 357.502498 67.91012 C 357.509591 96.514238 385.729159 119.708041 420.50141 119.682898 C 455.280401 119.703001 483.501924 96.505605 483.494831 67.901486 Z M 483.494831 67.901486 " transform="matrix(0.0956519,-0.0732865,0.0720813,0.0972507,5.643541,32.478609)"/>
</g>
</g>
</g>
</g>
</g>
<g clip-path="url(#clip6)" clip-rule="nonzero">
<g clip-path="url(#clip7)" clip-rule="nonzero">
<g clip-path="url(#clip8)" clip-rule="nonzero">
<g clip-path="url(#clip9)" clip-rule="nonzero">
<g clip-path="url(#clip10)" clip-rule="nonzero">
<path style="fill:none;stroke-width:4;stroke-linecap:butt;stroke-linejoin:miter;stroke:rgb(0%,0%,0%);stroke-opacity:1;stroke-miterlimit:10;" d="M 357.802004 17.000557 L 483.703349 17.001941 L 483.68533 120.697641 L 357.783985 120.696257 Z M 357.802004 17.000557 " transform="matrix(0.0956532,-0.0732851,0.0720799,0.097252,5.584843,32.525261)"/>
</g>
</g>
</g>
</g>
</g>
<g clip-path="url(#clip11)" clip-rule="nonzero">
<g clip-path="url(#clip12)" clip-rule="nonzero">
<g clip-path="url(#clip13)" clip-rule="nonzero">
<g clip-path="url(#clip14)" clip-rule="nonzero">
<path style="fill:none;stroke-width:4;stroke-linecap:butt;stroke-linejoin:miter;stroke:rgb(0%,0%,0%);stroke-opacity:1;stroke-miterlimit:10;" d="M 483.494831 67.901486 C 483.487737 39.297368 455.294216 16.123193 420.515224 16.10309 C 385.690881 16.088976 357.495404 39.306001 357.502498 67.91012 C 357.509591 96.514238 385.729159 119.708041 420.50141 119.682898 C 455.280401 119.703001 483.501924 96.505605 483.494831 67.901486 Z M 483.494831 67.901486 " transform="matrix(0.0956519,-0.0732865,0.0720813,0.0972507,5.643541,32.478609)"/>
<path style=" stroke:none;fill-rule:nonzero;fill:rgb(100%,100%,100%);fill-opacity:1;" d="M 41.035156 7.957031 L 53.078125 -1.269531 L 60.550781 8.816406 L 48.507812 18.042969 Z M 41.035156 7.957031 "/>
<g clip-path="url(#clip15)" clip-rule="nonzero">
<path style="fill-rule:nonzero;fill:rgb(100%,100%,100%);fill-opacity:1;stroke-width:4;stroke-linecap:butt;stroke-linejoin:miter;stroke:rgb(0%,0%,0%);stroke-opacity:1;stroke-miterlimit:10;" d="M 483.494831 67.901486 C 483.487737 39.297368 455.294216 16.123193 420.515224 16.10309 C 385.690881 16.088976 357.495404 39.306001 357.502498 67.91012 C 357.509591 96.514238 385.729159 119.708041 420.50141 119.682898 C 455.280401 119.703001 483.501924 96.505605 483.494831 67.901486 Z M 483.494831 67.901486 " transform="matrix(0.0956519,-0.0732865,0.0720813,0.0972507,5.643541,32.478609)"/>
</g>
</g>
</g>
</g>
</g>
<g clip-path="url(#clip16)" clip-rule="nonzero">
<g clip-path="url(#clip17)" clip-rule="nonzero">
<g clip-path="url(#clip18)" clip-rule="nonzero">
<g clip-path="url(#clip19)" clip-rule="nonzero">
<g clip-path="url(#clip20)" clip-rule="nonzero">
<path style="fill:none;stroke-width:4;stroke-linecap:butt;stroke-linejoin:miter;stroke:rgb(0%,0%,0%);stroke-opacity:1;stroke-miterlimit:10;" d="M 357.802004 17.000557 L 483.703349 17.001941 L 483.68533 120.697641 L 357.783985 120.696257 Z M 357.802004 17.000557 " transform="matrix(0.0956532,-0.0732851,0.0720799,0.097252,5.584843,32.525261)"/>
</g>
</g>
</g>
</g>
</g>
<g clip-path="url(#clip21)" clip-rule="nonzero">
<g clip-path="url(#clip22)" clip-rule="nonzero">
<g clip-path="url(#clip23)" clip-rule="nonzero">
<g clip-path="url(#clip24)" clip-rule="nonzero">
<path style="fill:none;stroke-width:4;stroke-linecap:butt;stroke-linejoin:miter;stroke:rgb(0%,0%,0%);stroke-opacity:1;stroke-miterlimit:10;" d="M 330.894244 -14.188034 L 510.688663 -14.220798 L 510.68777 150.90431 L 330.88661 150.891827 Z M 330.894244 -14.188034 " transform="matrix(0.0956519,-0.0732865,0.0720813,0.0972507,5.618129,32.516591)"/>
</g>
</g>
</g>
</g>
<g clip-path="url(#clip25)" clip-rule="nonzero">
<g clip-path="url(#clip26)" clip-rule="nonzero">
<g clip-path="url(#clip27)" clip-rule="nonzero">
<path style="fill:none;stroke-width:4;stroke-linecap:butt;stroke-linejoin:miter;stroke:rgb(0%,0%,0%);stroke-opacity:1;stroke-miterlimit:10;" d="M 483.494831 67.901486 C 483.487737 39.297368 455.294216 16.123193 420.515224 16.10309 C 385.690881 16.088976 357.495404 39.306001 357.502498 67.91012 C 357.509591 96.514238 385.729159 119.708041 420.50141 119.682898 C 455.280401 119.703001 483.501924 96.505605 483.494831 67.901486 Z M 483.494831 67.901486 " transform="matrix(0.0956519,-0.0732865,0.0720813,0.0972507,5.643541,32.478609)"/>
</g>
</g>
</g>
<g clip-path="url(#clip28)" clip-rule="nonzero">
<g clip-path="url(#clip29)" clip-rule="nonzero">
<g clip-path="url(#clip30)" clip-rule="nonzero">
<path style=" stroke:none;fill-rule:nonzero;fill:rgb(0%,0%,0%);fill-opacity:1;" d="M 47.394531 7.464844 L 48.589844 6.613281 L 50.0625 8.746094 C 50.316406 9.085938 50.507812 9.449219 50.652344 9.851562 C 50.734375 10.15625 50.710938 10.484375 50.589844 10.777344 C 50.4375 11.144531 50.183594 11.445312 49.847656 11.664062 C 49.453125 11.945312 49.121094 12.105469 48.832031 12.152344 C 48.554688 12.203125 48.269531 12.152344 48.003906 12.03125 C 47.714844 11.886719 47.464844 11.679688 47.273438 11.410156 L 48.304688 10.4375 C 48.386719 10.570312 48.496094 10.691406 48.613281 10.789062 C 48.699219 10.851562 48.792969 10.886719 48.902344 10.886719 C 48.984375 10.886719 49.070312 10.851562 49.128906 10.800781 C 49.25 10.730469 49.332031 10.582031 49.320312 10.4375 C 49.285156 10.230469 49.203125 10.023438 49.070312 9.863281 Z M 50.984375 8.816406 L 52.078125 7.9375 C 52.195312 8.085938 52.351562 8.195312 52.519531 8.257812 C 52.761719 8.328125 53.011719 8.28125 53.214844 8.121094 C 53.359375 8.023438 53.476562 7.890625 53.527344 7.71875 C 53.597656 7.5 53.476562 7.257812 53.261719 7.183594 C 53.226562 7.171875 53.1875 7.160156 53.15625 7.160156 C 53.011719 7.148438 52.761719 7.207031 52.386719 7.367188 C 51.777344 7.621094 51.296875 7.71875 50.9375 7.683594 C 50.589844 7.644531 50.269531 7.464844 50.078125 7.160156 C 49.933594 6.953125 49.859375 6.710938 49.847656 6.464844 C 49.847656 6.1875 49.921875 5.90625 50.078125 5.675781 C 50.304688 5.34375 50.578125 5.066406 50.914062 4.847656 C 51.417969 4.492188 51.859375 4.324219 52.246094 4.324219 C 52.625 4.324219 52.988281 4.503906 53.324219 4.882812 L 52.246094 5.75 C 52.03125 5.46875 51.621094 5.40625 51.347656 5.628906 L 51.308594 5.660156 C 51.191406 5.734375 51.105469 5.847656 51.058594 5.976562 C 51.023438 6.074219 51.046875 6.1875 51.105469 6.269531 C 51.152344 6.332031 51.226562 6.382812 51.308594 6.382812 C 51.40625 6.390625 51.574219 6.34375 51.8125 6.234375 C 52.410156 5.976562 52.867188 5.832031 53.179688 5.785156 C 53.441406 5.734375 53.71875 5.757812 53.96875 5.871094 C 54.195312 5.96875 54.386719 6.136719 54.519531 6.34375 C 54.6875 6.585938 54.78125 6.878906 54.796875 7.183594 C 54.804688 7.5 54.722656 7.804688 54.554688 8.074219 C 54.339844 8.402344 54.066406 8.683594 53.742188 8.902344 C 53.082031 9.363281 52.542969 9.558594 52.113281 9.484375 C 51.644531 9.410156 51.261719 9.167969 50.984375 8.816406 Z M 50.984375 8.816406 "/>
</g>
</g>
</g>
</g>
</svg>
